<?xml version="1.0" encoding="utf-8"?>
<!-- Generator: Adobe Illustrator 27.0.0, SVG Export Plug-In . SVG Version: 6.00 Build 0)  -->
<svg version="1.0" id="Layer_1" xmlns="http://www.w3.org/2000/svg" xmlns:xlink="http://www.w3.org/1999/xlink" x="0px" y="0px"
	 viewBox="0 0 1000 1000" style="enable-background:new 0 0 1000 1000;" xml:space="preserve">
<style type="text/css">
	.st0{fill:#212221;}
	.st1{fill:url(#XMLID_00000147221028116935130730000016141325813191995066_);}
	.st2{fill:url(#SVGID_1_);}
	.st3{fill:#FFFFFF;}
	.st4{fill:url(#SVGID_00000039851286656100040410000015965739534817392798_);}
	.st5{fill:url(#SVGID_00000017477817293191707300000000973979750975844795_);}
</style>
<rect x="0.2765957" y="-0.0638298" class="st0" width="1000" height="1000"/>
<g>
	
		<linearGradient id="XMLID_00000170256367429389379290000000030711866744255626_" gradientUnits="userSpaceOnUse" x1="665.2373657" y1="374.5753479" x2="559.9388428" y2="641.494812">
		<stop  offset="0" style="stop-color:#FFFFFF"/>
		<stop  offset="1" style="stop-color:#000000"/>
	</linearGradient>
	<path id="XMLID_27_" style="fill:url(#XMLID_00000170256367429389379290000000030711866744255626_);" d="M781.8397827,136.3119507
		v134.0827332c0,143.2549438-17.0029907,247.7261658-50.4871216,316.3521423
		c-0.2211914,0.4533081-0.442688,0.906311-0.6644897,1.3589478
		c-53.9586792-122.8792114-122.2778931-191.3487854-122.2778931-191.3487854V136.3119507H781.8397827z"/>
	
		<linearGradient id="SVGID_1_" gradientUnits="userSpaceOnUse" x1="522.4012451" y1="716.8826904" x2="745.5767212" y2="590.1410522">
		<stop  offset="0" style="stop-color:#FFFFFF"/>
		<stop  offset="1" style="stop-color:#000000"/>
	</linearGradient>
	<path class="st2" d="M586.0693359,597.3098145l0.8162842-24.2839966
		c34.359436,43.8787842,29.0031738,193.5336304,29.0031738,193.5336304
		c-40.1962891,61.2200317-119.3131104,89.8858032-190.6898193,89.8858032c-11.9528503,0-23.7183228-0.7981567-35.2555542-2.3203125
		c0,0-84.2619629-200.0845337,2.4799805-173.5844116C458.5006409,700.7275391,551.5820312,670.7738647,586.0693359,597.3098145z"/>
	<path class="st3" d="M452.1185608,686.671936c-29.914917,2.4679565-35.2206726,6.1411743-76.7913208-14.3688965
		c-98.3171997-68.1660156-29.4446106-186.1076355,74.6531982-183.2428894s128.921051,100.2623596,128.921051,100.2623596
		l0.7872925,1.9050293c40.4841309,103.8757324,28.1313477,258.9783936,28.1313477,258.9783936h173.430481
		c11.8445435-573.3831177-357.532074-526.9732056-357.532074-526.9732056
		c-126.8431396,0-266.8587646,119.39505-266.8587646,266.6888428c0,147.2401123,119.4934235,266.6351318,266.8587646,266.6351318
		c10.5906677,0,21.0381775-0.6350708,31.3157349-1.8336182V687.0447998L452.1185608,686.671936z"/>
	
		<linearGradient id="SVGID_00000103947850803427621120000008897063696929784742_" gradientUnits="userSpaceOnUse" x1="423.4280396" y1="696.4862671" x2="423.4280396" y2="696.4862671">
		<stop  offset="0" style="stop-color:#FFFFFF"/>
		<stop  offset="1" style="stop-color:#000000"/>
	</linearGradient>
	<path style="fill:url(#SVGID_00000103947850803427621120000008897063696929784742_);" d="M423.4280396,696.4862671"/>
	
		<linearGradient id="SVGID_00000023281151747300282320000000629950876869019304_" gradientUnits="userSpaceOnUse" x1="389.9434204" y1="679.3460083" x2="389.9434204" y2="679.3460083">
		<stop  offset="0" style="stop-color:#FFFFFF"/>
		<stop  offset="1" style="stop-color:#000000"/>
	</linearGradient>
	<path style="fill:url(#SVGID_00000023281151747300282320000000629950876869019304_);" d="M389.9434204,679.3460083"/>
</g>
</svg>
